<?xml version="1.0" encoding="UTF-8"?>
<svg id="Ebene_2" data-name="Ebene 2" xmlns="http://www.w3.org/2000/svg" viewBox="0 0 504 504">
  <defs>
    <style>
      .cls-1 {
        fill: #fff;
      }

      .cls-2 {
        fill: #feffff;
      }

      .cls-3 {
        fill: #1a4084;
      }
    </style>
  </defs>
  <g id="Ebene_3" data-name="Ebene 3">
    <g>
      <path class="cls-3" d="m252,0C112.83,0,0,112.83,0,252s112.83,252,252,252,252-112.82,252-252S391.18,0,252,0Zm-77.86,202.37c1.43-3.82,4.56-4.98,8.36-4.97,13.49.01,26.98,0,40.47,0h6.11c0-10.82-.05-20.8.01-30.78.1-16.15-.03-32.31.54-48.44.37-10.17,9.43-18.2,19.58-17.78,4.99.21,10.35.78,14.79,2.83,9.12,4.2,10.4,13.17,10.5,21.93.25,21.98.08,43.96.08,65.94v6.04c2.01.09,3.77.24,5.52.25,13.49.02,26.98-.03,40.46.05,2.12.01,4.32.28,6.33.91,4.53,1.41,6.35,6.49,3.75,10.41-1.18,1.77-2.68,3.37-4.19,4.89-21.88,21.93-43.78,43.83-65.68,65.73-6.62,6.62-9.53,6.63-16.09.08-22.61-22.6-45.19-45.24-67.87-67.78-2.77-2.75-4.06-5.62-2.67-9.31Zm228.69,159.04c-.33,7.49-5.41,13.11-12.79,14.29-1.96.32-3.98.36-5.97.36-86.8-.01-173.6-.03-260.4-.05-5.61,0-11.69-5.34-13.07-11.62-.43-1.94-.61-3.96-.61-5.95-.05-18.66-.04-37.32-.02-55.98.01-5.4.55-10.66,5.7-13.94,5.34-3.41,11.21-3.28,16.72-1.09,5.97,2.36,7.87,7.82,7.91,13.87.07,12.66.03,25.33.04,37.99v6.2h232.37v-25.56c0-6.33-.01-12.66,0-18.99.02-8.62,5.23-14.54,12.85-14.66,11.58-.19,17.12,4.13,17.27,14.16.23,15.83.08,31.66.09,47.48,0,4.5.1,9-.1,13.49Z"/>
      <path class="cls-2" d="m229.08,197.4c0-10.82-.05-20.8.01-30.78.1-16.15-.04-32.3.54-48.43.37-10.17,9.42-18.2,19.58-17.78,4.99.21,10.35.78,14.79,2.83,9.12,4.2,10.4,13.18,10.5,21.93.25,21.98.08,43.96.08,65.94,0,1.82,0,3.63,0,6.04,2.01.09,3.76.25,5.52.25,13.49.02,26.98-.03,40.47.05,2.12.01,4.32.28,6.33.91,4.53,1.42,6.34,6.5,3.75,10.41-1.18,1.78-2.68,3.37-4.2,4.89-21.88,21.93-43.78,43.83-65.68,65.73-6.62,6.62-9.53,6.63-16.08.08-22.62-22.6-45.19-45.24-67.87-67.78-2.78-2.76-4.06-5.62-2.68-9.32,1.43-3.82,4.57-4.97,8.37-4.97,13.49.02,26.98,0,40.47,0,1.79,0,3.59,0,6.11,0Z"/>
      <path class="cls-1" d="m140.34,345.49h232.37c0-8.67,0-17.12,0-25.56,0-6.33-.01-12.66,0-18.99.03-8.61,5.23-14.54,12.85-14.66,11.58-.19,17.12,4.13,17.27,14.17.23,15.82.09,31.65.09,47.48,0,4.5.11,9-.09,13.49-.33,7.48-5.42,13.11-12.8,14.29-1.96.31-3.98.35-5.97.35-86.8,0-173.6-.02-260.4-.04-5.6,0-11.69-5.34-13.07-11.62-.43-1.94-.6-3.96-.61-5.95-.04-18.66-.04-37.32-.02-55.98,0-5.4.55-10.66,5.7-13.94,5.34-3.41,11.21-3.28,16.72-1.09,5.97,2.37,7.87,7.82,7.9,13.88.08,12.66.03,25.32.04,37.99,0,1.96,0,3.92,0,6.2Z"/>
    </g>
  </g>
</svg>